<svg class="ico-welcome-bg" xmlns="http://www.w3.org/2000/svg" viewBox="0 0 320 257.186523" fill="none">    <path d="M40.35389988358557 35.60735739231665L7.242207217694994 57.56889406286379C1.8677718277066357 61.13359720605356 -0.8786533178114087 67.54793946449361 0.250881490104773 73.89727590221187L28.356135040745052 231.88451688009314C28.614481955762514 233.3373690337602 30.751478463329455 233.1604190919674 30.766379511059373 231.68521536670548C30.774761350407452 230.8451688009313 31.61071012805588 230.267753201397 32.39823050058207 230.55646100116414L95.78263096623981 253.7592549476135C102.78724097788127 256.32409778812575 110.32232828870781 257.09522700814904 117.70114086146683 256.0018626309663L219.53899883585566 240.92386495925496C224.01117578579746 240.26263096623984 228.35855646100117 238.92526193247966 232.43026775320138 236.9583236321304L291.32479627473805 208.5233993015134C298.6374854481956 204.9918509895227 304.8512223515716 199.5362048894063 309.297322467986 192.74132712456344L312.61466821885915 187.67310826542493C319.8044237485448 176.68526193247962 321.80116414435395 163.09178114086149 318.07403958090805 150.50039580908035L284.5932479627474 37.39511059371362C280.240279394645 22.687590221187428 268.6509895227008 11.23812805587893 253.89150174621653 7.062779976717113L234.89452852153667 1.6884619324796277C230.2882421420256 0.38547892898719444 225.50314318975555 -0.16946142025611177 220.72176949941795 0.04483017462165309L139.84968568102445 3.669103608847497C135.90630966239814 3.8458114086146686 132.0037252619325 4.5439441210710125 128.2438183934808 5.745266589057043L51.45965075669383 30.27781140861467C47.52949941792782 31.533410942956927 43.79213038416764 33.32693830034925 40.35389988358557 35.60735739231665Z"></path></svg>